# xmcd CD database file
#
# Track frame offsets:
#	150
#	57075
#	98100
#	123317
#	189167
#	218868
#	248868
#
# Disc length: 3745 seconds
#
# Revision: 0
# Processed by: cddbd v1.4PL0 Copyright (c) Steve Scherf et al.
# Submitted via: CDex 1.50
#
DISCID=590e9f07
DTITLE=Jean-Pierre Saccomani and Jean-Luc Berthelot - Equilibre thermique de l'igloo en phase de fonte
DYEAR=2003
DGENRE=New Age
TTITLE0=Prélude à l'après-midi d'un matelas sans ressort
TTITLE1=Oscillo-structure en équilibre incertain
TTITLE2=Equilibre inerte en mouvement perpétuel
TTITLE3=Métamorphose du rhinocéros
TTITLE4=Interférences lumineuses dans la lumière de l'ombre
TTITLE5=Les temps insolents de l'esprit
TTITLE6=Asymptotes
EXTD=YEAR: 2003
EXTT0=
EXTT1=
EXTT2=
EXTT3=
EXTT4=
EXTT5=
EXTT6=
PLAYORDER=
